<?xml version="1.0" encoding="UTF-8"?>
<!-- Created by Vectric (http://www.vectric.com/) -->
<svg width="9.75575481in" height="9.75575481in" viewBox="0 0 9.75575481 9.75575481" id="svg2" version="1.1" xmlns="http://www.w3.org/2000/svg" xmlns:xlink="http://www.w3.org/1999/xlink" xmlns:inkscape="http://www.inkscape.org/namespaces/inkscape">
    <g inkscape:groupmode="layer" id="85667243-1302-4a85-b3ac-c7bf39b332ec" inkscape:label="Toolpath Previews"/>
    <g inkscape:groupmode="layer" id="5624184e-22fc-4c28-89eb-89092b68aab8" inkscape:label="Layer 1">
        <path style="fill:none;stroke-width:0.010000;stroke-linecap:round;stroke-linejoin:round;stroke-opacity:1;stroke:#000000;" d="M 5.283409,9.118524 L 5.332020,9.113088 L 5.644520,9.055422 L 5.644520,9.013004 L 5.473547,9.022745 C 5.267888,9.034461 5.182577,9.018221 4.998687,8.932350 C 4.898442,8.885539 4.857183,8.873678 4.790353,8.872456 C 4.725666,8.871274 4.707020,8.875494 4.707020,8.891315 L 4.707020,8.911698 L 4.811187,8.971367 C 5.044591,9.105065 5.139442,9.134623 5.283409,9.118524 "/>
        <path style="fill:none;stroke-width:0.010000;stroke-linecap:round;stroke-linejoin:round;stroke-opacity:1;stroke:#000000;" d="M 4.965764,9.461104 C 4.993490,9.454145 5.051868,9.432666 5.095492,9.413373 C 5.139117,9.394080 5.236189,9.359354 5.311207,9.336204 C 5.407447,9.306506 5.471480,9.276586 5.528701,9.234579 C 5.573304,9.201835 5.659506,9.147667 5.720260,9.114207 L 5.830722,9.053371 L 5.798844,9.042745 L 5.614043,9.091496 C 5.512403,9.118310 5.370481,9.150322 5.298662,9.162634 C 5.151369,9.187884 5.077099,9.220024 5.003901,9.290190 C 4.975283,9.317623 4.915515,9.352222 4.865396,9.370369 C 4.780626,9.401064 4.738675,9.434995 4.759611,9.455931 C 4.775322,9.471642 4.910285,9.475029 4.965764,9.461104 "/>
        <path style="fill:none;stroke-width:0.010000;stroke-linecap:round;stroke-linejoin:round;stroke-opacity:1;stroke:#000000;" d="M 4.915353,9.098466 L 4.862399,9.065377 L 4.717069,8.969990 C 4.548610,8.859421 4.454928,8.822648 4.314691,8.812041 C 4.187480,8.802421 4.183743,8.820561 4.300770,8.879615 C 4.348513,8.903707 4.431326,8.952688 4.484798,8.988462 C 4.621608,9.079990 4.680697,9.100251 4.807996,9.099283 L 4.915353,9.098466 "/>
        <path style="fill:none;stroke-width:0.010000;stroke-linecap:round;stroke-linejoin:round;stroke-opacity:1;stroke:#000000;" d="M 3.950076,8.789037 L 3.950076,8.783530 L 3.845905,8.718604 C 3.782939,8.679359 3.705363,8.613518 3.649781,8.552149 C 3.586398,8.482167 3.522748,8.429997 3.444924,8.384243 C 3.382827,8.347735 3.290699,8.284492 3.240196,8.243704 L 3.148372,8.169544 L 3.125613,8.169544 C 3.113095,8.169544 3.102853,8.173080 3.102853,8.177402 C 3.102853,8.194177 3.137953,8.249447 3.200278,8.330813 C 3.236038,8.377497 3.290513,8.468512 3.321334,8.533068 C 3.352552,8.598458 3.396357,8.666418 3.420237,8.686512 C 3.470327,8.728660 3.559770,8.760130 3.686187,8.780084 C 3.774439,8.794014 3.950076,8.799973 3.950076,8.789037 "/>
        <path style="fill:none;stroke-width:0.010000;stroke-linecap:round;stroke-linejoin:round;stroke-opacity:1;stroke:#000000;" d="M 3.304242,8.954503 C 3.358724,8.934565 3.448784,8.915103 3.509103,8.910231 L 3.616742,8.901538 L 3.615475,8.870933 L 3.518932,8.791699 C 3.465834,8.748121 3.364411,8.683683 3.293549,8.648505 C 3.131289,8.567955 3.027502,8.556212 2.803132,8.593014 C 2.656246,8.617107 2.554234,8.616751 2.319824,8.591330 C 2.216765,8.580153 2.218635,8.601316 2.325756,8.658459 L 2.401465,8.698845 L 2.764854,8.933019 L 2.826215,8.955847 C 2.865005,8.970279 2.946326,8.980773 3.047298,8.984378 C 3.192251,8.989553 3.216010,8.986791 3.304242,8.954503 "/>
        <path style="fill:none;stroke-width:0.010000;stroke-linecap:round;stroke-linejoin:round;stroke-opacity:1;stroke:#000000;" d="M 3.213851,8.558433 L 3.187004,8.487777 C 3.172238,8.448917 3.134500,8.372354 3.103141,8.317639 C 3.071782,8.262923 3.007326,8.167055 2.959905,8.104599 L 2.873687,7.991043 L 2.532920,7.547328 L 2.510343,7.538665 C 2.497926,7.533900 2.484391,7.533377 2.480265,7.537503 L 2.472764,7.545004 L 2.502576,7.666302 C 2.521004,7.741278 2.534487,7.848595 2.537884,7.947322 C 2.548987,8.270066 2.653856,8.394999 3.015320,8.516101 L 3.141673,8.558433 L 3.213851,8.558433 "/>
        <path style="fill:none;stroke-width:0.010000;stroke-linecap:round;stroke-linejoin:round;stroke-opacity:1;stroke:#000000;" d="M 2.497529,8.173016 C 2.485229,8.144370 2.460382,8.082358 2.442314,8.035210 L 2.409463,7.949488 L 2.355526,7.523711 L 2.325680,7.435170 C 2.309264,7.386472 2.267256,7.289597 2.232327,7.219892 L 2.168821,7.093155 L 1.904016,6.690377 L 1.845107,6.565377 C 1.812708,6.496627 1.765759,6.365377 1.740777,6.273711 L 1.695356,6.107044 L 1.675932,6.060077 C 1.661030,6.024042 1.652702,6.016918 1.640152,6.029468 L 1.623795,6.045825 L 1.606007,6.495933 L 1.589697,6.620933 C 1.561212,6.839243 1.566952,7.031641 1.607200,7.207534 C 1.655539,7.418790 1.708096,7.523661 1.829882,7.651870 L 1.929139,7.756362 L 2.401465,8.150646 L 2.451387,8.187873 C 2.517427,8.237119 2.524128,8.234962 2.497529,8.173016 "/>
        <path style="fill:none;stroke-width:0.010000;stroke-linecap:round;stroke-linejoin:round;stroke-opacity:1;stroke:#000000;" d="M 1.936187,7.837222 C 1.936187,7.830139 1.913876,7.805954 1.886608,7.783478 C 1.859340,7.761001 1.812085,7.709412 1.781596,7.668835 L 1.726163,7.595060 L 1.616496,7.378830 C 1.500799,7.150709 1.373320,6.943810 1.278886,6.830887 L 1.222167,6.763064 L 1.040983,6.616538 C 0.820876,6.438535 0.655873,6.273859 0.526465,6.103040 L 0.429242,5.974706 L 0.420956,6.013158 L 0.512927,6.226768 C 0.563510,6.344253 0.638728,6.541892 0.680078,6.665965 L 0.755258,6.891554 L 0.796164,6.981770 C 0.858335,7.118885 0.969414,7.269713 1.095832,7.388671 C 1.231880,7.516690 1.321872,7.572646 1.502507,7.641533 C 1.576795,7.669864 1.700034,7.728381 1.776371,7.771572 L 1.915167,7.850100 L 1.925677,7.850100 C 1.931457,7.850100 1.936187,7.844305 1.936187,7.837222 "/>
        <path style="fill:none;stroke-width:0.010000;stroke-linecap:round;stroke-linejoin:round;stroke-opacity:1;stroke:#000000;" d="M 7.016332,4.599890 C 7.071871,4.585338 7.168425,4.546840 7.230897,4.514338 C 7.393797,4.429588 7.524267,4.295760 7.608996,4.126506 L 7.673376,3.997900 L 7.669365,3.979890 C 7.664577,3.958392 7.646741,3.967269 7.520438,4.054009 C 7.391366,4.142650 7.320853,4.152758 7.088965,4.115858 C 6.840495,4.076320 6.717760,4.091569 6.530538,4.185238 C 6.390153,4.255474 6.326236,4.329787 6.304325,4.448246 L 6.295163,4.497781 L 6.389980,4.541411 C 6.583271,4.630354 6.816837,4.652161 7.016332,4.599890 "/>
        <path style="fill:none;stroke-width:0.010000;stroke-linecap:round;stroke-linejoin:round;stroke-opacity:1;stroke:#000000;" d="M 1.540785,7.120933 C 1.535245,7.082739 1.516036,7.004614 1.498099,6.947322 C 1.426189,6.717642 1.419457,6.511712 1.475625,6.259822 C 1.543560,5.955158 1.550280,5.620468 1.495881,5.250891 L 1.458354,4.995933 L 1.456795,4.204266 L 1.424353,4.273711 C 1.406510,4.311905 1.365315,4.415030 1.332807,4.502877 C 1.300300,4.590725 1.226308,4.771975 1.168381,4.905655 L 1.063059,5.148711 L 1.028366,5.252877 C 0.938254,5.523439 0.926453,5.834039 0.996176,6.100100 C 1.049285,6.302760 1.173130,6.595056 1.270920,6.748544 C 1.318674,6.823497 1.397499,6.950155 1.446087,7.030007 L 1.534428,7.175193 L 1.542643,7.182785 C 1.547161,7.186961 1.546324,7.159127 1.540785,7.120933 "/>
        <path style="fill:none;stroke-width:0.010000;stroke-linecap:round;stroke-linejoin:round;stroke-opacity:1;stroke:#000000;" d="M 1.143111,6.620933 L 1.144520,6.597781 L 0.978662,6.183253 L 0.936938,5.968155 L 0.907963,5.360834 L 0.886967,5.221045 C 0.847261,4.956690 0.754167,4.641266 0.656747,4.441010 C 0.626849,4.379551 0.555617,4.243329 0.498453,4.138294 L 0.394520,3.947322 L 0.380631,3.947322 L 0.380220,4.190377 L 0.378021,4.468155 C 0.376811,4.620933 0.375851,4.870933 0.375886,5.023711 L 0.375951,5.301489 L 0.392737,5.426489 C 0.428581,5.693410 0.494754,5.855258 0.665703,6.094111 L 0.755851,6.220067 L 1.143111,6.620933 "/>
        <path style="fill:none;stroke-width:0.010000;stroke-linecap:round;stroke-linejoin:round;stroke-opacity:1;stroke:#000000;" d="M 1.344779,3.058433 C 1.366850,3.024058 1.406857,2.962722 1.433682,2.922130 C 1.460508,2.881539 1.504858,2.829861 1.532238,2.807290 C 1.601473,2.750217 1.764812,2.667765 1.929242,2.606887 C 2.005631,2.578605 2.105631,2.535821 2.151465,2.511810 L 2.234798,2.468155 L 2.776465,1.922974 L 2.977853,1.807208 L 2.977853,1.786987 C 2.977853,1.772870 2.962132,1.766784 2.925770,1.766823 L 2.873687,1.766880 L 2.679242,1.807148 C 2.572298,1.829295 2.432493,1.866604 2.368565,1.890056 C 2.125853,1.979096 1.836721,2.158263 1.697381,2.305971 C 1.595947,2.413497 1.442169,2.636671 1.388032,2.754923 C 1.345495,2.847835 1.293469,3.045644 1.300000,3.089624 C 1.304086,3.117133 1.309521,3.113347 1.344779,3.058433 "/>
        <path style="fill:none;stroke-width:0.010000;stroke-linecap:round;stroke-linejoin:round;stroke-opacity:1;stroke:#000000;" d="M 2.137576,1.932262 L 2.311187,1.842719 C 2.406673,1.793471 2.531673,1.737125 2.588965,1.717507 L 2.693131,1.681838 L 3.198178,1.641469 L 3.334544,1.606533 C 3.488245,1.567156 3.664554,1.487217 3.838965,1.377826 C 4.061628,1.238172 4.248759,1.167732 4.517571,1.122385 L 4.690839,1.093155 L 4.696177,1.077109 C 4.699112,1.068283 4.677924,1.053277 4.649093,1.043761 L 4.596671,1.026461 L 4.325457,1.035613 C 4.158754,1.041238 3.963257,1.038414 3.818131,1.028284 C 3.598585,1.012960 3.568196,1.013882 3.384978,1.041426 C 3.071142,1.088606 2.871092,1.167963 2.652585,1.331955 C 2.495990,1.449481 2.288336,1.647142 2.183892,1.778093 L 2.102853,1.879697 L 2.102853,1.906565 C 2.102853,1.921342 2.110666,1.933169 2.120215,1.932847 L 2.137576,1.932262 "/>
        <path style="fill:none;stroke-width:0.010000;stroke-linecap:round;stroke-linejoin:round;stroke-opacity:1;stroke:#000000;" d="M 2.429242,1.419463 L 2.580832,1.327812 C 2.664206,1.277403 2.804831,1.199988 2.893332,1.155777 C 3.194223,1.005467 3.400187,0.951061 3.693131,0.944508 L 3.845909,0.941090 L 4.637576,0.949015 L 4.818131,0.920086 L 5.084705,0.865239 C 5.231320,0.835073 5.437022,0.803205 5.541819,0.794421 L 5.732359,0.778451 L 5.901465,0.797152 L 6.312591,0.877877 L 6.347769,0.877877 C 6.405569,0.877877 6.379761,0.846563 6.282961,0.799240 L 6.193131,0.755325 L 5.529577,0.515700 L 5.368932,0.467006 C 5.280577,0.440224 5.114251,0.398532 4.999320,0.374357 C 4.801311,0.332707 4.774330,0.330397 4.484798,0.330290 L 4.179242,0.330178 L 4.004503,0.361347 C 3.741112,0.408328 3.583055,0.454412 3.426857,0.529766 C 3.176045,0.650766 2.944221,0.821476 2.677637,1.081475 L 2.523253,1.232044 L 2.465831,1.306208 C 2.412483,1.375110 2.394025,1.419600 2.418826,1.419504 L 2.429242,1.419463 "/>
        <path style="fill:none;stroke-width:0.010000;stroke-linecap:round;stroke-linejoin:round;stroke-opacity:1;stroke:#000000;" d="M 5.526465,7.964885 C 5.587576,7.966684 5.678201,7.966462 5.727853,7.964393 C 6.904723,7.915352 7.956198,7.116806 8.350814,5.972377 C 8.565477,5.349830 8.559237,4.713834 8.331786,4.033152 C 8.052346,3.196884 7.455753,2.538343 6.680476,2.210373 C 5.978739,1.913514 5.172981,1.892006 4.477853,2.151578 C 3.693722,2.444385 3.087429,3.056157 2.791804,3.852861 C 2.519088,4.587827 2.556626,5.493307 2.891012,6.245933 C 3.342589,7.262330 4.367430,7.930774 5.526465,7.964885 "/>
        <path style="fill:none;stroke-width:0.010000;stroke-linecap:round;stroke-linejoin:round;stroke-opacity:1;stroke:#000000;" d="M 5.929242,8.876405 L 6.074591,8.856924 C 6.154532,8.846209 6.296726,8.821346 6.390576,8.801673 C 6.949357,8.684539 7.474694,8.437951 7.970731,8.059966 L 8.109443,7.954266 L 8.516200,7.551489 L 8.627927,7.409724 C 9.053286,6.870009 9.325034,6.245952 9.431056,5.565377 L 9.457020,5.398711 L 9.455411,4.648711 L 9.431009,4.475100 C 9.343566,3.852954 9.167114,3.330843 8.890592,2.876038 C 8.310056,1.921212 7.355406,1.314070 6.138013,1.125443 L 5.957020,1.097399 L 5.232110,1.082784 L 5.087620,1.099447 C 4.158284,1.206618 3.321515,1.616389 2.686187,2.275444 C 2.127540,2.854954 1.783399,3.551403 1.650727,4.370933 L 1.628243,4.509822 L 1.613683,5.162600 L 1.636680,5.363989 C 1.711367,6.018043 1.923567,6.619285 2.255539,7.117454 C 2.421955,7.367185 2.535114,7.505836 2.741072,7.712366 C 3.339793,8.312753 4.103406,8.695717 4.984798,8.837633 L 5.165353,8.866704 L 5.929242,8.876405 "/>
        <path style="fill:none;stroke-width:0.010000;stroke-linecap:round;stroke-linejoin:round;stroke-opacity:1;stroke:#000000;" d="M 4.877877,0.000000 A 4.877877,4.877877 0 0,0 0.000000,4.877877 A 4.877877,4.877877 0 0,0 4.877877,9.755755 A 4.877877,4.877877 0 0,0 9.755755,4.877877 A 4.877877,4.877877 0 0,0 4.877877,0.000000 "/>
        <path style="fill:none;stroke-width:0.010000;stroke-linecap:round;stroke-linejoin:round;stroke-opacity:1;stroke:#000000;" d="M 3.406106,5.987191 A 0.364727,0.364727 0 0,0 3.041379,6.351918 A 0.364727,0.364727 0 0,0 3.406106,6.716645 A 0.364727,0.364727 0 0,0 3.770833,6.351918 A 0.364727,0.364727 0 0,0 3.406106,5.987191 "/>
        <path style="fill:none;stroke-width:0.010000;stroke-linecap:round;stroke-linejoin:round;stroke-opacity:1;stroke:#000000;" d="M 4.757819,5.042957 A 0.362855,0.362855 0 0,0 4.394964,4.680102 A 0.362855,0.362855 0 0,0 4.032109,5.042957 A 0.362855,0.362855 0 0,0 4.394964,5.405812 A 0.362855,0.362855 0 0,0 4.757819,5.042957 "/>
        <path style="fill:none;stroke-width:0.010000;stroke-linecap:round;stroke-linejoin:round;stroke-opacity:1;stroke:#000000;" d="M 6.132824,4.273711 L 6.146774,4.311905 C 6.154446,4.332912 6.165825,4.350100 6.172060,4.350100 L 6.183397,4.350100 L 6.188486,4.173016 C 6.192970,4.016976 6.197931,3.986583 6.230241,3.917247 C 6.285739,3.798148 6.366551,3.697573 6.488432,3.595916 C 6.661490,3.451573 6.766845,3.330823 6.823257,3.212164 C 6.867097,3.119949 6.873176,3.094256 6.872774,3.002877 C 6.872436,2.925972 6.864292,2.880928 6.841657,2.830760 L 6.810999,2.762810 L 6.703454,2.770627 C 6.613705,2.777150 6.408409,2.826631 6.408409,2.841739 L 6.408409,2.846151 L 6.458490,2.941875 C 6.504821,3.030430 6.508086,3.044541 6.502088,3.130277 C 6.494288,3.241779 6.459428,3.309146 6.296773,3.527050 C 6.235421,3.609241 6.163030,3.720961 6.135904,3.775317 C 6.089927,3.867448 6.086382,3.883920 6.083600,4.018373 L 6.083128,4.032674 C 6.089480,4.114771 6.106229,4.195739 6.132824,4.273711 "/>
        <path style="fill:none;stroke-width:0.010000;stroke-linecap:round;stroke-linejoin:round;stroke-opacity:1;stroke:#000000;" d="M 3.984798,5.698530 C 3.910475,5.639520 3.852911,5.562076 3.817898,5.474063 C 3.806924,5.444986 3.797298,5.396362 3.797298,5.357890 C 3.797298,5.103917 4.019556,4.784189 4.283409,4.658598 C 4.348340,4.627692 4.460840,4.588888 4.533409,4.572367 C 5.001367,4.465832 5.211413,4.363543 5.388687,4.155861 C 5.523897,3.997459 5.619228,3.771880 5.664211,3.503902 C 5.689768,3.351647 5.691364,3.279127 5.671808,3.158619 C 5.647870,3.011111 5.569293,2.837516 5.539772,2.866923 L 5.529855,2.876802 L 5.532111,3.005812 C 5.536220,3.240845 5.455893,3.453375 5.277851,3.678534 C 5.095177,3.909551 4.892799,4.001697 4.566104,4.002602 L 4.466855,4.002877 L 4.547564,3.920396 C 4.637797,3.828179 4.713789,3.687817 4.751047,3.544544 C 4.787183,3.405587 4.781406,3.182208 4.737326,3.013978 C 4.674881,2.775660 4.529294,2.469542 4.391100,2.285985 C 4.312376,2.181418 4.301806,2.220405 4.366407,2.377064 C 4.444617,2.566725 4.479140,2.833225 4.450176,3.023711 C 4.417027,3.241720 4.317757,3.428585 4.153429,3.582305 L 4.065159,3.664878 L 3.512576,4.093155 L 3.373186,4.232044 C 3.042015,4.562024 2.929287,4.857709 2.997912,5.216382 C 3.050530,5.491393 3.204628,5.722627 3.433225,5.869601 C 3.484507,5.902572 3.607715,5.970913 3.707020,6.021471 L 3.887576,6.113393 L 3.966900,6.176890 C 4.101171,6.284371 4.207978,6.467965 4.265625,6.690377 C 4.294279,6.800930 4.293773,7.014009 4.264599,7.122938 C 4.233303,7.239785 4.233875,7.311964 4.266048,7.305854 L 4.290353,7.301239 L 4.340903,7.175049 C 4.515087,6.740218 4.501330,6.332099 4.302375,6.032122 C 4.255115,5.960865 4.254285,5.957634 4.285408,5.966066 C 4.303406,5.970942 4.373300,5.982409 4.440729,5.991548 C 4.588396,6.011562 4.719378,5.993938 4.826536,5.939637 L 4.896309,5.904281 L 5.204708,5.614224 L 5.264514,5.585273 C 5.327546,5.554759 5.367433,5.557920 5.411881,5.596951 C 5.425249,5.608689 5.436187,5.630176 5.436187,5.644700 L 5.436187,5.671106 L 5.078518,6.023711 L 5.019486,6.112338 C 4.854553,6.359963 4.783409,6.622549 4.783409,6.983680 C 4.783409,7.214087 4.819272,7.513905 4.856642,7.595925 C 4.871696,7.628963 4.900499,7.638023 4.915145,7.614326 L 4.923520,7.600775 L 4.951374,7.409465 C 5.015942,6.965996 5.159980,6.733242 5.521468,6.488237 C 5.738520,6.341126 5.859334,6.285302 5.986144,6.273527 L 6.084712,6.264374 L 6.398449,6.690377 L 6.476346,6.793999 C 6.519189,6.850991 6.585492,6.921428 6.623687,6.950526 C 6.781593,7.070826 7.126775,7.207603 7.351858,7.239060 C 7.524894,7.263244 7.516388,7.232269 7.304242,7.065650 C 7.043931,6.861203 6.884883,6.645102 6.732153,6.288343 L 6.684904,6.177975 L 6.520590,5.600250 L 6.476809,5.500499 C 6.421870,5.375324 6.338607,5.235708 6.248051,5.116916 C 6.128267,4.959781 5.929787,4.830237 5.677165,4.744307 C 5.549189,4.700777 5.332567,4.684478 5.215544,4.709574 C 5.048508,4.745397 4.886402,4.857810 4.837470,4.971752 L 4.812067,5.030904 L 4.722352,5.368319 A 1.004441,1.004441 0 0,1 4.649599,5.534587 C 4.619489,5.594419 4.565744,5.678090 4.526973,5.719736 C 4.496138,5.752857 4.415729,5.811364 4.348286,5.849750 L 4.225663,5.919544 L 4.220909,5.918904 L 3.984798,5.698530 "/>
        <path style="fill:none;stroke-width:0.010000;stroke-linecap:round;stroke-linejoin:round;stroke-opacity:1;stroke:#000000;" d="M 1.617993,8.168678 A 2.571266,2.571266 0 0,0 1.898734,8.412204 C 1.901776,8.413496 1.906027,8.415881 1.910330,8.418421 C 1.972899,8.455337 2.109258,8.485475 2.262576,8.496272 C 2.331326,8.501114 2.461752,8.514258 2.552412,8.525482 L 2.717249,8.545890 L 2.729732,8.533407 L 2.220909,8.023391 L 2.108631,7.964779 C 2.035951,7.926839 1.928188,7.888186 1.803075,7.855180 C 1.696773,7.827137 1.550684,7.780146 1.478434,7.750757 L 1.347070,7.697322 L 1.308295,7.697322 C 1.247944,7.697322 1.261257,7.728399 1.352225,7.799867 C 1.417231,7.850939 1.454517,7.897353 1.526461,8.016761 L 1.617993,8.168678 "/>
        <path style="fill:none;stroke-width:0.010000;stroke-linecap:round;stroke-linejoin:round;stroke-opacity:1;stroke:#000000;" d="M 6.130989,4.321164 C 6.129293,4.337730 6.124124,4.350100 6.118431,4.350100 C 6.098093,4.350100 5.997601,4.209869 5.950658,4.115982 C 5.776958,3.768579 5.842282,3.327673 6.108190,3.052716 C 6.189823,2.968306 6.313089,2.877877 6.346519,2.877877 C 6.382081,2.877877 6.415359,2.992186 6.415154,3.113638 C 6.414903,3.262419 6.378369,3.348595 6.230098,3.550146 L 6.126937,3.690377 L 6.101855,3.746017 C 6.074443,3.806826 6.046142,3.957488 6.054492,3.998154 C 6.057378,4.012210 6.064436,4.054961 6.070177,4.093155 L 6.080615,4.162600 C 6.097589,4.215389 6.114344,4.268248 6.130989,4.321164 "/>
        <path style="fill:none;stroke-width:0.010000;stroke-linecap:round;stroke-linejoin:round;stroke-opacity:1;stroke:#000000;" d="M 4.015461,5.704510 C 3.955869,5.663984 3.910645,5.604688 3.887043,5.536003 C 3.887646,5.523308 3.897612,5.513224 3.909915,5.512010 C 3.913086,5.512674 3.916288,5.513382 3.919509,5.514106 C 4.128457,5.561088 4.418795,5.504982 4.575122,5.389365 C 4.606204,5.367915 4.636218,5.344952 4.664696,5.320654 C 4.669286,5.318207 4.675608,5.313456 4.682954,5.306110 C 4.693392,5.295672 4.698187,5.293068 4.704046,5.306908 A 0.471930,0.471930 0 0,1 4.671795,5.454266 L 4.629740,5.530655 C 4.535468,5.701890 4.436696,5.760084 4.241742,5.759254 C 4.147475,5.758852 4.111904,5.752562 4.065212,5.728036 C 4.046610,5.718266 4.028313,5.709613 4.015461,5.704510 "/>
        <path style="fill:none;stroke-width:0.010000;stroke-linecap:round;stroke-linejoin:round;stroke-opacity:1;stroke:#000000;" d="M 1.181257,3.267091 C 1.186743,3.275170 1.192508,3.280655 1.196284,3.280655 L 1.207277,3.280655 L 1.245746,3.091431 C 1.266903,2.987357 1.302094,2.856159 1.323948,2.799879 C 1.377484,2.662005 1.502753,2.444296 1.584590,2.346898 L 1.651465,2.267308 L 2.009395,1.886846 L 2.090599,1.777326 C 2.176112,1.661995 2.245790,1.526273 2.349150,1.273711 L 2.411673,1.120933 L 2.437819,1.069403 C 2.486615,0.973232 2.463110,0.933829 2.386781,0.983842 L 2.352242,1.006473 L 2.242100,1.135240 C 2.150364,1.242490 2.101299,1.284546 1.948477,1.386915 C 1.512580,1.678905 1.274877,1.964989 1.163143,2.332091 C 1.129175,2.443695 1.125859,2.475298 1.124822,2.697322 L 1.123732,2.891503 C 1.128259,3.018565 1.147670,3.144677 1.181257,3.267091 "/>
        <path style="fill:none;stroke-width:0.010000;stroke-linecap:round;stroke-linejoin:round;stroke-opacity:1;stroke:#000000;" d="M 3.706083,6.623298 C 3.771241,6.551637 3.810833,6.456401 3.810833,6.351918 C 3.810833,6.257614 3.777924,6.166766 3.718530,6.094696 C 3.735336,6.070604 3.857705,6.130893 3.932223,6.201369 C 4.033773,6.297411 4.075076,6.385604 4.075076,6.506399 C 4.075076,6.633630 4.055929,6.707660 3.984058,6.858316 C 3.937009,6.956940 3.905903,7.001175 3.841994,7.060343 C 3.796991,7.102009 3.738836,7.146607 3.712761,7.159450 C 3.614466,7.207865 3.607819,7.186374 3.685235,7.070444 C 3.774784,6.936343 3.786595,6.792321 3.719569,6.651766 L 3.706083,6.623298 "/>
        <path style="fill:none;stroke-width:0.010000;stroke-linecap:round;stroke-linejoin:round;stroke-opacity:1;stroke:#000000;" d="M 1.138202,4.263411 A 12.960708,12.960708 0 0,0 1.187146,3.954266 L 1.250984,3.509822 L 1.269054,3.454266 C 1.334006,3.254572 1.531723,3.037807 1.853047,2.814010 L 2.054424,2.673755 L 2.098782,2.650816 C 2.123179,2.638200 2.150482,2.627877 2.159455,2.627877 C 2.188178,2.627877 2.162307,2.705244 2.098086,2.811405 C 1.972084,3.019688 1.901159,3.195519 1.796754,3.558433 C 1.734167,3.775984 1.657646,3.880924 1.362810,4.153532 C 1.297486,4.213931 1.269313,4.255423 1.211919,4.375754 L 1.141350,4.523711 L 1.135759,4.529729 C 1.132684,4.533039 1.123395,4.528974 1.115116,4.520695 L 1.100064,4.505643 L 1.138202,4.263411 "/>
        <path style="fill:none;stroke-width:0.010000;stroke-linecap:round;stroke-linejoin:round;stroke-opacity:1;stroke:#000000;" d="M 2.177219,8.658064 C 2.358152,8.787369 2.579051,8.920680 2.802803,9.033115 C 3.365459,9.315849 3.933222,9.469561 4.609798,9.522330 L 4.679242,9.527747 L 5.262576,9.516523 L 5.415353,9.496882 C 5.998386,9.421927 6.477625,9.276760 6.975814,9.024200 C 7.869305,8.571238 8.573992,7.866551 9.026954,6.973060 C 9.285350,6.463361 9.429688,5.978004 9.507536,5.357044 L 9.524948,5.218155 L 9.524948,4.537600 L 9.507536,4.398711 C 9.429688,3.777750 9.285350,3.292394 9.026954,2.782695 C 8.573992,1.889204 7.869305,1.184517 6.975814,0.731555 C 6.466114,0.473159 5.980758,0.328820 5.359798,0.250972 L 5.220909,0.233560 L 4.540353,0.233560 L 4.401465,0.250972 C 3.780504,0.328820 3.295148,0.473159 2.785449,0.731555 C 2.138818,1.059369 1.600531,1.510378 1.163051,2.090897 L 1.035750,2.259822 A 2.040430,2.040430 0 0,1 0.995165,2.321115 L 0.904350,2.472351 C 0.548274,3.065334 0.345692,3.665138 0.253726,4.398711 L 0.236314,4.537600 L 0.236314,5.218155 L 0.253726,5.357044 C 0.382565,6.384738 0.756903,7.228628 1.413121,7.970729 L 1.558224,8.134822 L 1.601372,8.175615 C 1.608459,8.182315 1.615161,8.188022 1.620809,8.192299 C 1.796199,8.368094 1.987695,8.527734 2.177219,8.658064 "/>
        <path style="fill:none;stroke-width:0.010000;stroke-linecap:round;stroke-linejoin:round;stroke-opacity:1;stroke:#000000;" d="M 6.280332,4.222518 C 6.265967,4.258699 6.257424,4.290541 6.252491,4.323107 C 6.253068,4.327510 6.253502,4.334226 6.253952,4.343155 C 6.257879,4.420911 6.277331,4.425578 6.304204,4.355210 C 6.318343,4.318190 6.356326,4.263136 6.390936,4.229499 C 6.455144,4.167096 6.597142,4.092168 6.727853,4.051719 L 6.804242,4.028080 L 7.373687,4.007157 L 7.415353,3.988248 C 7.610836,3.899533 7.665573,3.818862 7.664582,3.620933 C 7.663594,3.423719 7.598031,3.217321 7.496959,3.093244 C 7.462695,3.051181 7.428680,3.016766 7.421371,3.016766 C 7.413368,3.016766 7.412206,3.040251 7.418449,3.075794 C 7.424152,3.108259 7.428913,3.184822 7.429028,3.245933 C 7.429222,3.348333 7.425073,3.364839 7.376104,3.456469 C 7.309699,3.580725 7.247499,3.654042 7.161876,3.708986 L 7.095202,3.751771 L 6.915000,3.802150 C 6.578788,3.896146 6.381804,4.018710 6.298268,4.185880 L 6.280332,4.222518 "/>
        <path style="fill:none;stroke-width:0.010000;stroke-linecap:round;stroke-linejoin:round;stroke-opacity:1;stroke:#000000;" d="M 6.268587,4.201346 C 6.254702,4.245028 6.246683,4.290741 6.244965,4.336739 C 6.241188,4.352501 6.231749,4.362912 6.223310,4.360033 L 6.207020,4.354477 L 6.207565,4.196038 C 6.208100,4.040470 6.209044,4.035834 6.259652,3.940171 C 6.344063,3.780614 6.433688,3.682045 6.585381,3.581939 C 6.745918,3.475997 6.894784,3.326570 6.943021,3.222951 C 6.971055,3.162731 6.977608,3.126921 6.977718,3.033333 C 6.977792,2.969876 6.970801,2.889949 6.962182,2.855718 C 6.953562,2.821487 6.950105,2.789885 6.954499,2.785491 C 6.967733,2.772257 7.145753,2.833226 7.234561,2.881406 C 7.280264,2.906202 7.325485,2.942114 7.335051,2.961211 C 7.359444,3.009907 7.357071,3.177903 7.330722,3.267718 C 7.284503,3.425262 7.171921,3.567438 7.026465,3.651953 L 6.957020,3.692303 L 6.582020,3.851869 L 6.525987,3.884537 C 6.495168,3.902505 6.440970,3.948191 6.405546,3.986062 C 6.356112,4.038911 6.294686,4.138250 6.268587,4.201346 "/>
        <path style="fill:none;stroke-width:0.010000;stroke-linecap:round;stroke-linejoin:round;stroke-opacity:1;stroke:#000000;" d="M 4.577104,9.144389 L 4.498687,9.148970 C 4.399745,9.154783 4.338942,9.168551 4.207020,9.215012 C 4.048046,9.271001 4.032981,9.273706 3.880631,9.273604 C 3.729104,9.273502 3.708083,9.269755 3.470909,9.200571 L 3.220909,9.127645 L 2.957197,9.084999 L 2.943336,9.071138 C 2.934113,9.061915 2.936408,9.052529 2.950192,9.043091 L 2.970909,9.028907 L 3.116742,9.036502 C 3.339610,9.048109 3.453135,9.015996 3.729496,8.863170 C 3.823383,8.811252 3.937135,8.797031 4.064235,8.821325 C 4.192153,8.845774 4.468061,8.986440 4.593380,9.087704 C 4.608157,9.106923 4.600209,9.135568 4.577104,9.144389 "/>
        <path style="fill:none;stroke-width:0.010000;stroke-linecap:round;stroke-linejoin:round;stroke-opacity:1;stroke:#000000;" d="M 4.484420,9.175378 C 4.348347,9.215491 4.255631,9.278967 4.255631,9.335579 C 4.255631,9.368980 4.257638,9.368966 4.338965,9.335021 C 4.389380,9.313978 4.422949,9.310412 4.512576,9.316578 C 4.663696,9.326974 4.857698,9.303101 4.913273,9.267270 C 4.957079,9.239026 5.071494,9.182117 5.123687,9.162613 C 5.148577,9.153311 5.147133,9.150951 5.109798,9.139910 L 5.068131,9.127588 C 4.872134,9.117678 4.675705,9.133770 4.484420,9.175378 "/>
        <path style="fill:none;stroke-width:0.010000;stroke-linecap:round;stroke-linejoin:round;stroke-opacity:1;stroke:#000000;" d="M 0.600116,3.357044 A 1.826186,1.826186 0 0,0 0.585664,3.793826 L 0.602139,3.908769 C 0.611201,3.971987 0.631019,4.073711 0.646180,4.134822 L 0.673744,4.245933 L 0.838037,4.829266 L 0.867231,4.941742 C 0.898072,5.060561 0.944587,5.153760 0.962788,5.133204 L 0.973653,5.120933 L 0.990918,4.926489 C 1.012272,4.685991 1.035858,4.549155 1.080096,4.409115 C 1.098911,4.349555 1.118729,4.277245 1.124136,4.248425 C 1.127867,4.228536 1.132487,4.212499 1.136089,4.206261 C 1.159634,4.107502 1.177382,4.006800 1.189156,3.905314 L 1.194414,3.773711 C 1.200857,3.613634 1.193841,3.491957 1.165983,3.280655 C 1.165395,3.276198 1.164873,3.272092 1.164591,3.268298 C 1.157957,3.230292 1.148878,3.192755 1.137576,3.155857 L 1.074801,2.870933 L 1.075130,2.350566 C 1.063821,2.324079 1.029549,2.313165 1.004801,2.330948 L 0.916692,2.552269 C 0.868190,2.674062 0.787618,2.867825 0.737642,2.982853 L 0.646777,3.191994 L 0.600116,3.357044 "/>
    </g>
</svg>
